<?xml version="1.0" encoding="UTF-8"?>
<svg xmlns="http://www.w3.org/2000/svg" xmlns:xlink="http://www.w3.org/1999/xlink" width="13pt" height="13pt" viewBox="0 0 13 13" version="1.1">
<g id="surface1">
<path style=" stroke:none;fill-rule:nonzero;fill:rgb(68.627451%,69.411765%,70.196078%);fill-opacity:1;" d="M 8.53125 7.042969 C 8.53125 6.816406 8.347656 6.636719 8.125 6.636719 L 4.875 6.636719 C 4.652344 6.636719 4.46875 6.816406 4.46875 7.042969 C 4.46875 7.265625 4.652344 7.449219 4.875 7.449219 L 8.125 7.449219 C 8.347656 7.449219 8.53125 7.265625 8.53125 7.042969 Z M 8.53125 7.042969 "/>
<path style=" stroke:none;fill-rule:nonzero;fill:rgb(68.627451%,69.411765%,70.196078%);fill-opacity:1;" d="M 8.53125 9.207031 C 8.53125 8.984375 8.347656 8.800781 8.125 8.800781 L 4.875 8.800781 C 4.652344 8.800781 4.46875 8.984375 4.46875 9.207031 C 4.46875 9.433594 4.652344 9.613281 4.875 9.613281 L 8.125 9.613281 C 8.347656 9.613281 8.53125 9.433594 8.53125 9.207031 Z M 8.53125 9.207031 "/>
<path style=" stroke:none;fill-rule:evenodd;fill:rgb(68.627451%,69.411765%,70.196078%);fill-opacity:1;" d="M 3.792969 1.21875 C 2.96875 1.21875 2.300781 1.886719 2.300781 2.707031 L 2.300781 10.292969 C 2.300781 11.113281 2.96875 11.78125 3.792969 11.78125 L 9.207031 11.78125 C 10.03125 11.78125 10.699219 11.113281 10.699219 10.292969 L 10.699219 4.316406 C 10.699219 4.109375 10.628906 3.910156 10.507812 3.746094 L 8.882812 1.59375 C 8.703125 1.359375 8.421875 1.21875 8.125 1.21875 Z M 3.113281 2.707031 C 3.113281 2.335938 3.417969 2.03125 3.792969 2.03125 L 7.71875 2.03125 L 7.71875 4.414062 C 7.71875 4.636719 7.902344 4.820312 8.125 4.820312 L 9.886719 4.820312 L 9.886719 10.292969 C 9.886719 10.664062 9.582031 10.96875 9.207031 10.96875 L 3.792969 10.96875 C 3.417969 10.96875 3.113281 10.664062 3.113281 10.292969 Z M 3.113281 2.707031 "/>
</g>
</svg>
